<mxfile host="app.diagrams.net" modified="2021-05-21T08:19:12.548Z" agent="5.0 (Windows NT 10.0; Win64; x64) AppleWebKit/537.36 (KHTML, like Gecko) Chrome/90.0.4430.212 Safari/537.36" etag="-v0z5xtSGSYSbEDk3n7g" version="14.5.6" type="github">
  <diagram id="ZcyR1tgKg1dZHripQX6e" name="Page-1">
    <mxGraphModel dx="1911" dy="1814" grid="1" gridSize="10" guides="1" tooltips="1" connect="1" arrows="1" fold="1" page="1" pageScale="1" pageWidth="827" pageHeight="1169" math="0" shadow="0">
      <root>
        <mxCell id="0" />
        <mxCell id="1" parent="0" />
        <mxCell id="N5gHByBdXhvwig3bYxlo-2" value="输入框" style="rounded=0;whiteSpace=wrap;html=1;" parent="1" vertex="1">
          <mxGeometry x="80" y="80" width="160" height="30" as="geometry" />
        </mxCell>
        <mxCell id="N5gHByBdXhvwig3bYxlo-9" value="" style="edgeStyle=orthogonalEdgeStyle;rounded=0;orthogonalLoop=1;jettySize=auto;html=1;" parent="1" source="N5gHByBdXhvwig3bYxlo-145" target="N5gHByBdXhvwig3bYxlo-8" edge="1">
          <mxGeometry relative="1" as="geometry" />
        </mxCell>
        <mxCell id="N5gHByBdXhvwig3bYxlo-150" value="渲染表格" style="edgeLabel;html=1;align=center;verticalAlign=middle;resizable=0;points=[];" parent="N5gHByBdXhvwig3bYxlo-9" vertex="1" connectable="0">
          <mxGeometry x="-0.3422" y="-3" relative="1" as="geometry">
            <mxPoint as="offset" />
          </mxGeometry>
        </mxCell>
        <mxCell id="N5gHByBdXhvwig3bYxlo-3" value="。。。" style="rounded=0;whiteSpace=wrap;html=1;" parent="1" vertex="1">
          <mxGeometry x="240" y="80" width="30" height="30" as="geometry" />
        </mxCell>
        <mxCell id="N5gHByBdXhvwig3bYxlo-8" value="" style="whiteSpace=wrap;html=1;rounded=0;" parent="1" vertex="1">
          <mxGeometry x="350" y="350" width="350" height="445" as="geometry" />
        </mxCell>
        <mxCell id="N5gHByBdXhvwig3bYxlo-10" value="搜索框" style="rounded=1;whiteSpace=wrap;html=1;" parent="1" vertex="1">
          <mxGeometry x="475" y="370" width="170" height="30" as="geometry" />
        </mxCell>
        <mxCell id="N5gHByBdXhvwig3bYxlo-155" style="edgeStyle=orthogonalEdgeStyle;rounded=0;orthogonalLoop=1;jettySize=auto;html=1;entryX=0.5;entryY=1;entryDx=0;entryDy=0;entryPerimeter=0;" parent="1" source="N5gHByBdXhvwig3bYxlo-15" target="N5gHByBdXhvwig3bYxlo-144" edge="1">
          <mxGeometry relative="1" as="geometry" />
        </mxCell>
        <mxCell id="N5gHByBdXhvwig3bYxlo-158" value="点击确认" style="edgeLabel;html=1;align=center;verticalAlign=middle;resizable=0;points=[];" parent="N5gHByBdXhvwig3bYxlo-155" vertex="1" connectable="0">
          <mxGeometry x="0.0019" y="2" relative="1" as="geometry">
            <mxPoint as="offset" />
          </mxGeometry>
        </mxCell>
        <mxCell id="N5gHByBdXhvwig3bYxlo-160" style="edgeStyle=orthogonalEdgeStyle;rounded=0;orthogonalLoop=1;jettySize=auto;html=1;" parent="1" source="N5gHByBdXhvwig3bYxlo-15" target="N5gHByBdXhvwig3bYxlo-161" edge="1">
          <mxGeometry relative="1" as="geometry">
            <mxPoint x="130" y="890" as="targetPoint" />
          </mxGeometry>
        </mxCell>
        <mxCell id="N5gHByBdXhvwig3bYxlo-164" value="关闭页面" style="edgeLabel;html=1;align=center;verticalAlign=middle;resizable=0;points=[];" parent="N5gHByBdXhvwig3bYxlo-160" vertex="1" connectable="0">
          <mxGeometry x="0.7507" y="2" relative="1" as="geometry">
            <mxPoint as="offset" />
          </mxGeometry>
        </mxCell>
        <mxCell id="N5gHByBdXhvwig3bYxlo-15" value="确定" style="rounded=1;whiteSpace=wrap;html=1;" parent="1" vertex="1">
          <mxGeometry x="540" y="750" width="60" height="25" as="geometry" />
        </mxCell>
        <mxCell id="N5gHByBdXhvwig3bYxlo-162" style="edgeStyle=orthogonalEdgeStyle;rounded=0;orthogonalLoop=1;jettySize=auto;html=1;entryX=1;entryY=0.5;entryDx=0;entryDy=0;" parent="1" source="N5gHByBdXhvwig3bYxlo-16" target="N5gHByBdXhvwig3bYxlo-161" edge="1">
          <mxGeometry relative="1" as="geometry">
            <Array as="points">
              <mxPoint x="640" y="890" />
            </Array>
          </mxGeometry>
        </mxCell>
        <mxCell id="N5gHByBdXhvwig3bYxlo-163" value="关闭页面" style="edgeLabel;html=1;align=center;verticalAlign=middle;resizable=0;points=[];" parent="N5gHByBdXhvwig3bYxlo-162" vertex="1" connectable="0">
          <mxGeometry x="0.0478" y="-1" relative="1" as="geometry">
            <mxPoint as="offset" />
          </mxGeometry>
        </mxCell>
        <mxCell id="N5gHByBdXhvwig3bYxlo-16" value="取消" style="rounded=1;whiteSpace=wrap;html=1;" parent="1" vertex="1">
          <mxGeometry x="610" y="750" width="60" height="25" as="geometry" />
        </mxCell>
        <mxCell id="N5gHByBdXhvwig3bYxlo-173" style="edgeStyle=orthogonalEdgeStyle;rounded=0;orthogonalLoop=1;jettySize=auto;html=1;entryX=0;entryY=0.5;entryDx=0;entryDy=0;" parent="1" source="N5gHByBdXhvwig3bYxlo-17" target="N5gHByBdXhvwig3bYxlo-171" edge="1">
          <mxGeometry relative="1" as="geometry">
            <Array as="points">
              <mxPoint x="310" y="715" />
              <mxPoint x="310" y="-140" />
            </Array>
          </mxGeometry>
        </mxCell>
        <mxCell id="N5gHByBdXhvwig3bYxlo-174" value="切换分页" style="edgeLabel;html=1;align=center;verticalAlign=middle;resizable=0;points=[];" parent="N5gHByBdXhvwig3bYxlo-173" vertex="1" connectable="0">
          <mxGeometry x="0.1696" y="-1" relative="1" as="geometry">
            <mxPoint as="offset" />
          </mxGeometry>
        </mxCell>
        <mxCell id="N5gHByBdXhvwig3bYxlo-17" value="分页" style="rounded=0;whiteSpace=wrap;html=1;direction=west;" parent="1" vertex="1">
          <mxGeometry x="450" y="700" width="220" height="30" as="geometry" />
        </mxCell>
        <mxCell id="N5gHByBdXhvwig3bYxlo-165" style="edgeStyle=orthogonalEdgeStyle;rounded=0;orthogonalLoop=1;jettySize=auto;html=1;" parent="1" source="N5gHByBdXhvwig3bYxlo-18" target="N5gHByBdXhvwig3bYxlo-120" edge="1">
          <mxGeometry relative="1" as="geometry" />
        </mxCell>
        <mxCell id="N5gHByBdXhvwig3bYxlo-18" value="搜索" style="rounded=1;whiteSpace=wrap;html=1;" parent="1" vertex="1">
          <mxGeometry x="645" y="370" width="40" height="30" as="geometry" />
        </mxCell>
        <mxCell id="N5gHByBdXhvwig3bYxlo-19" value="sqlCode" style="ellipse;whiteSpace=wrap;html=1;aspect=fixed;direction=west;rotation=0;" parent="1" vertex="1">
          <mxGeometry x="350" y="-65" width="80" height="80" as="geometry" />
        </mxCell>
        <mxCell id="N5gHByBdXhvwig3bYxlo-20" value="" style="edgeStyle=orthogonalEdgeStyle;rounded=0;orthogonalLoop=1;jettySize=auto;html=1;" parent="1" source="N5gHByBdXhvwig3bYxlo-3" target="N5gHByBdXhvwig3bYxlo-21" edge="1">
          <mxGeometry relative="1" as="geometry">
            <mxPoint x="270" y="95" as="sourcePoint" />
            <mxPoint x="455" y="170" as="targetPoint" />
          </mxGeometry>
        </mxCell>
        <mxCell id="N5gHByBdXhvwig3bYxlo-134" value="点击" style="edgeLabel;html=1;align=center;verticalAlign=middle;resizable=0;points=[];" parent="N5gHByBdXhvwig3bYxlo-20" vertex="1" connectable="0">
          <mxGeometry x="-0.2328" y="-2" relative="1" as="geometry">
            <mxPoint as="offset" />
          </mxGeometry>
        </mxCell>
        <mxCell id="N5gHByBdXhvwig3bYxlo-21" value="根据参数查找数据" style="ellipse;whiteSpace=wrap;html=1;" parent="1" vertex="1">
          <mxGeometry x="465" y="55" width="120" height="80" as="geometry" />
        </mxCell>
        <mxCell id="N5gHByBdXhvwig3bYxlo-22" value="" style="edgeStyle=orthogonalEdgeStyle;rounded=0;orthogonalLoop=1;jettySize=auto;html=1;" parent="1" source="N5gHByBdXhvwig3bYxlo-19" target="N5gHByBdXhvwig3bYxlo-21" edge="1">
          <mxGeometry relative="1" as="geometry">
            <mxPoint x="390" y="-100" as="sourcePoint" />
            <mxPoint x="525" y="210" as="targetPoint" />
          </mxGeometry>
        </mxCell>
        <mxCell id="N5gHByBdXhvwig3bYxlo-132" style="edgeStyle=orthogonalEdgeStyle;rounded=0;orthogonalLoop=1;jettySize=auto;html=1;exitX=0.5;exitY=1;exitDx=0;exitDy=0;exitPerimeter=0;entryX=0.5;entryY=0;entryDx=0;entryDy=0;entryPerimeter=0;" parent="1" source="N5gHByBdXhvwig3bYxlo-143" target="N5gHByBdXhvwig3bYxlo-144" edge="1">
          <mxGeometry relative="1" as="geometry">
            <mxPoint x="-80" y="135" as="sourcePoint" />
            <mxPoint x="130" y="530" as="targetPoint" />
            <Array as="points">
              <mxPoint x="-80" y="290" />
              <mxPoint x="130" y="290" />
            </Array>
          </mxGeometry>
        </mxCell>
        <mxCell id="N5gHByBdXhvwig3bYxlo-133" value="打开帮助类时初始化勾选数据" style="edgeLabel;html=1;align=center;verticalAlign=middle;resizable=0;points=[];" parent="N5gHByBdXhvwig3bYxlo-132" vertex="1" connectable="0">
          <mxGeometry x="0.3705" y="1" relative="1" as="geometry">
            <mxPoint as="offset" />
          </mxGeometry>
        </mxCell>
        <mxCell id="N5gHByBdXhvwig3bYxlo-116" style="edgeStyle=orthogonalEdgeStyle;rounded=0;orthogonalLoop=1;jettySize=auto;html=1;entryX=0.5;entryY=0;entryDx=0;entryDy=0;" parent="1" source="N5gHByBdXhvwig3bYxlo-113" target="N5gHByBdXhvwig3bYxlo-21" edge="1">
          <mxGeometry relative="1" as="geometry" />
        </mxCell>
        <mxCell id="imyrR_8BB6hhWeoKTVX1-27" value="过滤参数变化" style="edgeLabel;html=1;align=center;verticalAlign=middle;resizable=0;points=[];" vertex="1" connectable="0" parent="N5gHByBdXhvwig3bYxlo-116">
          <mxGeometry x="-0.2074" y="1" relative="1" as="geometry">
            <mxPoint as="offset" />
          </mxGeometry>
        </mxCell>
        <mxCell id="N5gHByBdXhvwig3bYxlo-113" value="过滤参数" style="ellipse;whiteSpace=wrap;html=1;aspect=fixed;" parent="1" vertex="1">
          <mxGeometry x="625" y="-65" width="80" height="80" as="geometry" />
        </mxCell>
        <mxCell id="N5gHByBdXhvwig3bYxlo-117" style="edgeStyle=orthogonalEdgeStyle;rounded=0;orthogonalLoop=1;jettySize=auto;html=1;" parent="1" source="N5gHByBdXhvwig3bYxlo-137" target="N5gHByBdXhvwig3bYxlo-21" edge="1">
          <mxGeometry relative="1" as="geometry" />
        </mxCell>
        <mxCell id="N5gHByBdXhvwig3bYxlo-114" value="排序参数" style="ellipse;whiteSpace=wrap;html=1;" parent="1" vertex="1">
          <mxGeometry x="620" y="-180" width="85" height="80" as="geometry" />
        </mxCell>
        <mxCell id="N5gHByBdXhvwig3bYxlo-166" style="edgeStyle=orthogonalEdgeStyle;rounded=0;orthogonalLoop=1;jettySize=auto;html=1;" parent="1" source="N5gHByBdXhvwig3bYxlo-120" target="N5gHByBdXhvwig3bYxlo-113" edge="1">
          <mxGeometry relative="1" as="geometry" />
        </mxCell>
        <mxCell id="N5gHByBdXhvwig3bYxlo-120" value="搜索关键词" style="ellipse;whiteSpace=wrap;html=1;" parent="1" vertex="1">
          <mxGeometry x="605" y="170" width="120" height="80" as="geometry" />
        </mxCell>
        <mxCell id="N5gHByBdXhvwig3bYxlo-125" value="列表" style="swimlane;html=1;childLayout=stackLayout;resizeParent=1;resizeParentMax=0;startSize=20;" parent="1" vertex="1">
          <mxGeometry x="390" y="440" width="280" height="240" as="geometry" />
        </mxCell>
        <mxCell id="N5gHByBdXhvwig3bYxlo-126" value="多选" style="swimlane;html=1;startSize=20;" parent="N5gHByBdXhvwig3bYxlo-125" vertex="1">
          <mxGeometry y="20" width="40" height="220" as="geometry" />
        </mxCell>
        <mxCell id="N5gHByBdXhvwig3bYxlo-127" value="列1" style="swimlane;html=1;startSize=20;" parent="N5gHByBdXhvwig3bYxlo-125" vertex="1">
          <mxGeometry x="40" y="20" width="120" height="220" as="geometry">
            <mxRectangle x="40" y="20" width="30" height="220" as="alternateBounds" />
          </mxGeometry>
        </mxCell>
        <mxCell id="N5gHByBdXhvwig3bYxlo-128" value="列2" style="swimlane;html=1;startSize=20;" parent="N5gHByBdXhvwig3bYxlo-125" vertex="1">
          <mxGeometry x="160" y="20" width="120" height="220" as="geometry" />
        </mxCell>
        <mxCell id="N5gHByBdXhvwig3bYxlo-130" style="edgeStyle=orthogonalEdgeStyle;rounded=0;orthogonalLoop=1;jettySize=auto;html=1;" parent="1" source="N5gHByBdXhvwig3bYxlo-126" target="N5gHByBdXhvwig3bYxlo-144" edge="1">
          <mxGeometry relative="1" as="geometry">
            <mxPoint x="190" y="570" as="targetPoint" />
            <Array as="points">
              <mxPoint x="340" y="581" />
              <mxPoint x="340" y="581" />
            </Array>
          </mxGeometry>
        </mxCell>
        <mxCell id="N5gHByBdXhvwig3bYxlo-157" value="勾选数据" style="edgeLabel;html=1;align=center;verticalAlign=middle;resizable=0;points=[];" parent="N5gHByBdXhvwig3bYxlo-130" vertex="1" connectable="0">
          <mxGeometry x="0.241" y="-1" relative="1" as="geometry">
            <mxPoint as="offset" />
          </mxGeometry>
        </mxCell>
        <mxCell id="N5gHByBdXhvwig3bYxlo-137" value="组件参数" style="rounded=0;whiteSpace=wrap;html=1;" parent="1" vertex="1">
          <mxGeometry x="482.5" width="85" height="26.25" as="geometry" />
        </mxCell>
        <mxCell id="N5gHByBdXhvwig3bYxlo-138" style="edgeStyle=orthogonalEdgeStyle;rounded=0;orthogonalLoop=1;jettySize=auto;html=1;" parent="1" source="N5gHByBdXhvwig3bYxlo-114" target="N5gHByBdXhvwig3bYxlo-137" edge="1">
          <mxGeometry relative="1" as="geometry">
            <mxPoint x="525" y="-110" as="sourcePoint" />
            <mxPoint x="525" y="55" as="targetPoint" />
          </mxGeometry>
        </mxCell>
        <mxCell id="imyrR_8BB6hhWeoKTVX1-26" value="排序参数变化" style="edgeLabel;html=1;align=center;verticalAlign=middle;resizable=0;points=[];" vertex="1" connectable="0" parent="N5gHByBdXhvwig3bYxlo-138">
          <mxGeometry x="0.1603" y="-1" relative="1" as="geometry">
            <mxPoint as="offset" />
          </mxGeometry>
        </mxCell>
        <mxCell id="N5gHByBdXhvwig3bYxlo-176" style="edgeStyle=orthogonalEdgeStyle;rounded=0;orthogonalLoop=1;jettySize=auto;html=1;" parent="1" source="N5gHByBdXhvwig3bYxlo-143" target="N5gHByBdXhvwig3bYxlo-177" edge="1">
          <mxGeometry relative="1" as="geometry">
            <mxPoint x="-80" y="-60.00000000000023" as="targetPoint" />
          </mxGeometry>
        </mxCell>
        <mxCell id="N5gHByBdXhvwig3bYxlo-143" value="&lt;span&gt;已选择数据&lt;/span&gt;" style="shape=cylinder3;whiteSpace=wrap;html=1;boundedLbl=1;backgroundOutline=1;size=15;" parent="1" vertex="1">
          <mxGeometry x="-110" y="55" width="60" height="80" as="geometry" />
        </mxCell>
        <mxCell id="N5gHByBdXhvwig3bYxlo-156" style="edgeStyle=orthogonalEdgeStyle;rounded=0;orthogonalLoop=1;jettySize=auto;html=1;entryX=0;entryY=0.5;entryDx=0;entryDy=0;entryPerimeter=0;" parent="1" source="N5gHByBdXhvwig3bYxlo-144" target="N5gHByBdXhvwig3bYxlo-143" edge="1">
          <mxGeometry relative="1" as="geometry" />
        </mxCell>
        <mxCell id="N5gHByBdXhvwig3bYxlo-159" value="确认后存储数据" style="edgeLabel;html=1;align=center;verticalAlign=middle;resizable=0;points=[];" parent="N5gHByBdXhvwig3bYxlo-156" vertex="1" connectable="0">
          <mxGeometry x="-0.5308" y="-1" relative="1" as="geometry">
            <mxPoint as="offset" />
          </mxGeometry>
        </mxCell>
        <mxCell id="imyrR_8BB6hhWeoKTVX1-10" style="edgeStyle=orthogonalEdgeStyle;rounded=0;orthogonalLoop=1;jettySize=auto;html=1;" edge="1" parent="1" source="N5gHByBdXhvwig3bYxlo-144" target="imyrR_8BB6hhWeoKTVX1-11">
          <mxGeometry relative="1" as="geometry">
            <mxPoint y="690" as="targetPoint" />
          </mxGeometry>
        </mxCell>
        <mxCell id="N5gHByBdXhvwig3bYxlo-144" value="已勾选数据" style="shape=cylinder3;whiteSpace=wrap;html=1;boundedLbl=1;backgroundOutline=1;size=15;" parent="1" vertex="1">
          <mxGeometry x="100" y="540" width="60" height="82.5" as="geometry" />
        </mxCell>
        <mxCell id="N5gHByBdXhvwig3bYxlo-145" value="搜索框数据" style="shape=cylinder3;whiteSpace=wrap;html=1;boundedLbl=1;backgroundOutline=1;size=15;" parent="1" vertex="1">
          <mxGeometry x="495" y="190" width="60" height="80" as="geometry" />
        </mxCell>
        <mxCell id="N5gHByBdXhvwig3bYxlo-147" value="" style="edgeStyle=orthogonalEdgeStyle;rounded=0;orthogonalLoop=1;jettySize=auto;html=1;" parent="1" source="N5gHByBdXhvwig3bYxlo-21" target="N5gHByBdXhvwig3bYxlo-145" edge="1">
          <mxGeometry relative="1" as="geometry">
            <mxPoint x="525" y="135" as="sourcePoint" />
            <mxPoint x="525" y="350" as="targetPoint" />
          </mxGeometry>
        </mxCell>
        <mxCell id="N5gHByBdXhvwig3bYxlo-149" value="发送请求" style="edgeLabel;html=1;align=center;verticalAlign=middle;resizable=0;points=[];" parent="N5gHByBdXhvwig3bYxlo-147" vertex="1" connectable="0">
          <mxGeometry x="-0.2752" relative="1" as="geometry">
            <mxPoint as="offset" />
          </mxGeometry>
        </mxCell>
        <mxCell id="N5gHByBdXhvwig3bYxlo-161" value="清除帮助类数据" style="ellipse;whiteSpace=wrap;html=1;" parent="1" vertex="1">
          <mxGeometry x="70" y="850" width="120" height="80" as="geometry" />
        </mxCell>
        <mxCell id="N5gHByBdXhvwig3bYxlo-167" style="edgeStyle=orthogonalEdgeStyle;rounded=0;orthogonalLoop=1;jettySize=auto;html=1;entryX=1;entryY=0.5;entryDx=0;entryDy=0;" parent="1" source="N5gHByBdXhvwig3bYxlo-127" target="N5gHByBdXhvwig3bYxlo-114" edge="1">
          <mxGeometry relative="1" as="geometry">
            <Array as="points">
              <mxPoint x="780" y="470" />
              <mxPoint x="780" y="-140" />
            </Array>
          </mxGeometry>
        </mxCell>
        <mxCell id="N5gHByBdXhvwig3bYxlo-168" value="排序" style="edgeLabel;html=1;align=center;verticalAlign=middle;resizable=0;points=[];" parent="N5gHByBdXhvwig3bYxlo-167" vertex="1" connectable="0">
          <mxGeometry x="0.0559" y="-2" relative="1" as="geometry">
            <mxPoint y="1" as="offset" />
          </mxGeometry>
        </mxCell>
        <mxCell id="N5gHByBdXhvwig3bYxlo-172" style="edgeStyle=orthogonalEdgeStyle;rounded=0;orthogonalLoop=1;jettySize=auto;html=1;entryX=0;entryY=0;entryDx=0;entryDy=0;" parent="1" source="N5gHByBdXhvwig3bYxlo-171" target="N5gHByBdXhvwig3bYxlo-21" edge="1">
          <mxGeometry relative="1" as="geometry" />
        </mxCell>
        <mxCell id="imyrR_8BB6hhWeoKTVX1-25" value="分页参数变化" style="edgeLabel;html=1;align=center;verticalAlign=middle;resizable=0;points=[];" vertex="1" connectable="0" parent="N5gHByBdXhvwig3bYxlo-172">
          <mxGeometry x="-0.0567" y="-2" relative="1" as="geometry">
            <mxPoint y="1" as="offset" />
          </mxGeometry>
        </mxCell>
        <mxCell id="N5gHByBdXhvwig3bYxlo-171" value="分页参数" style="ellipse;whiteSpace=wrap;html=1;aspect=fixed;" parent="1" vertex="1">
          <mxGeometry x="350" y="-180" width="80" height="80" as="geometry" />
        </mxCell>
        <mxCell id="N5gHByBdXhvwig3bYxlo-179" style="edgeStyle=orthogonalEdgeStyle;rounded=0;orthogonalLoop=1;jettySize=auto;html=1;" parent="1" source="imyrR_8BB6hhWeoKTVX1-4" target="N5gHByBdXhvwig3bYxlo-181" edge="1">
          <mxGeometry relative="1" as="geometry">
            <mxPoint x="160" y="-60.00000000000023" as="targetPoint" />
            <Array as="points">
              <mxPoint x="50" y="-60" />
              <mxPoint x="50" y="-220" />
            </Array>
          </mxGeometry>
        </mxCell>
        <mxCell id="imyrR_8BB6hhWeoKTVX1-6" value="否" style="edgeLabel;html=1;align=center;verticalAlign=middle;resizable=0;points=[];" vertex="1" connectable="0" parent="N5gHByBdXhvwig3bYxlo-179">
          <mxGeometry x="-0.5384" y="-2" relative="1" as="geometry">
            <mxPoint as="offset" />
          </mxGeometry>
        </mxCell>
        <mxCell id="N5gHByBdXhvwig3bYxlo-177" value="[k1, k2, k3]" style="shape=parallelogram;perimeter=parallelogramPerimeter;whiteSpace=wrap;html=1;fixedSize=1;" parent="1" vertex="1">
          <mxGeometry x="-140" y="-90.00000000000023" width="120" height="60" as="geometry" />
        </mxCell>
        <mxCell id="N5gHByBdXhvwig3bYxlo-183" style="edgeStyle=orthogonalEdgeStyle;rounded=0;orthogonalLoop=1;jettySize=auto;html=1;entryX=0.5;entryY=0;entryDx=0;entryDy=0;" parent="1" source="N5gHByBdXhvwig3bYxlo-181" target="N5gHByBdXhvwig3bYxlo-2" edge="1">
          <mxGeometry relative="1" as="geometry" />
        </mxCell>
        <mxCell id="N5gHByBdXhvwig3bYxlo-184" value="回显" style="edgeLabel;html=1;align=center;verticalAlign=middle;resizable=0;points=[];" parent="N5gHByBdXhvwig3bYxlo-183" vertex="1" connectable="0">
          <mxGeometry x="-0.0959" y="2" relative="1" as="geometry">
            <mxPoint as="offset" />
          </mxGeometry>
        </mxCell>
        <mxCell id="N5gHByBdXhvwig3bYxlo-181" value="根据code查询数据并回显" style="ellipse;whiteSpace=wrap;html=1;" parent="1" vertex="1">
          <mxGeometry x="100" y="-260" width="120" height="80" as="geometry" />
        </mxCell>
        <mxCell id="imyrR_8BB6hhWeoKTVX1-1" value="[K1: 关键词1， k2: 关键词2， k3: 关键词3]" style="shape=parallelogram;perimeter=parallelogramPerimeter;whiteSpace=wrap;html=1;fixedSize=1;" vertex="1" parent="1">
          <mxGeometry x="-450" y="-90" width="270" height="60" as="geometry" />
        </mxCell>
        <mxCell id="imyrR_8BB6hhWeoKTVX1-2" value="" style="endArrow=classic;startArrow=classic;html=1;entryX=1;entryY=0.5;entryDx=0;entryDy=0;exitX=0;exitY=0.5;exitDx=0;exitDy=0;" edge="1" parent="1" source="N5gHByBdXhvwig3bYxlo-177" target="imyrR_8BB6hhWeoKTVX1-1">
          <mxGeometry width="50" height="50" relative="1" as="geometry">
            <mxPoint x="-60" y="110" as="sourcePoint" />
            <mxPoint x="-10" y="60" as="targetPoint" />
          </mxGeometry>
        </mxCell>
        <mxCell id="imyrR_8BB6hhWeoKTVX1-7" style="edgeStyle=orthogonalEdgeStyle;rounded=0;orthogonalLoop=1;jettySize=auto;html=1;entryX=0;entryY=0.5;entryDx=0;entryDy=0;" edge="1" parent="1" source="imyrR_8BB6hhWeoKTVX1-4" target="N5gHByBdXhvwig3bYxlo-2">
          <mxGeometry relative="1" as="geometry" />
        </mxCell>
        <mxCell id="imyrR_8BB6hhWeoKTVX1-8" value="是" style="edgeLabel;html=1;align=center;verticalAlign=middle;resizable=0;points=[];" vertex="1" connectable="0" parent="imyrR_8BB6hhWeoKTVX1-7">
          <mxGeometry x="-0.517" relative="1" as="geometry">
            <mxPoint as="offset" />
          </mxGeometry>
        </mxCell>
        <mxCell id="imyrR_8BB6hhWeoKTVX1-9" value="回显" style="edgeLabel;html=1;align=center;verticalAlign=middle;resizable=0;points=[];" vertex="1" connectable="0" parent="imyrR_8BB6hhWeoKTVX1-7">
          <mxGeometry x="0.1648" relative="1" as="geometry">
            <mxPoint as="offset" />
          </mxGeometry>
        </mxCell>
        <mxCell id="imyrR_8BB6hhWeoKTVX1-4" value="是否有对应数据" style="rhombus;whiteSpace=wrap;html=1;direction=south;" vertex="1" parent="1">
          <mxGeometry y="-115" width="100" height="110" as="geometry" />
        </mxCell>
        <mxCell id="imyrR_8BB6hhWeoKTVX1-5" style="edgeStyle=orthogonalEdgeStyle;rounded=0;orthogonalLoop=1;jettySize=auto;html=1;" edge="1" parent="1" source="N5gHByBdXhvwig3bYxlo-177" target="imyrR_8BB6hhWeoKTVX1-4">
          <mxGeometry relative="1" as="geometry">
            <mxPoint x="100" y="-219.99999999999977" as="targetPoint" />
            <Array as="points" />
            <mxPoint x="-30" y="-59.99999999999977" as="sourcePoint" />
          </mxGeometry>
        </mxCell>
        <mxCell id="imyrR_8BB6hhWeoKTVX1-11" value="&amp;nbsp; &amp;nbsp; &amp;nbsp; [&amp;nbsp; &lt;br&gt;&amp;nbsp; &amp;nbsp; &amp;nbsp; &amp;nbsp; {&lt;br&gt;&amp;nbsp; &amp;nbsp; &amp;nbsp; &amp;nbsp; &amp;nbsp;value: k1,&lt;br&gt;&amp;nbsp; &amp;nbsp; &amp;nbsp; &amp;nbsp; &amp;nbsp;label: 关键词1,&lt;br&gt;&amp;nbsp; &amp;nbsp; &amp;nbsp; }&lt;br&gt;&amp;nbsp; &amp;nbsp; ]" style="shape=parallelogram;perimeter=parallelogramPerimeter;whiteSpace=wrap;html=1;fixedSize=1;align=left;" vertex="1" parent="1">
          <mxGeometry x="-90" y="660" width="180" height="100" as="geometry" />
        </mxCell>
      </root>
    </mxGraphModel>
  </diagram>
</mxfile>
